<svg xmlns="http://www.w3.org/2000/svg" width="10" height="122"><g><path d="M 3.113 9.76 L 3.113 10.688 L 6.863 10.688 L 6.863 9.76 C 8.743 8.988 9.975 7.133 9.975 5.071 C 9.975 2.275 7.738 0 4.988 0 C 2.238 0 0 2.275 0 5.071 C 0 7.193 1.287 9.01 3.113 9.76 Z" fill="rgb(105, 105, 105)"></path><path d="M 0 116.993 C 0 114.192 2.233 111.922 4.988 111.922 C 7.742 111.922 9.975 114.192 9.975 116.993 C 9.975 119.793 7.742 122.064 4.988 122.064 C 2.233 122.064 0 119.793 0 116.993 Z" fill="rgb(105, 105, 105)"></path><path d="M 3.112 102.772 L 6.862 102.772 L 6.862 107.614 L 3.112 107.614 Z M 3.112 83.392 L 6.862 83.392 L 6.862 88.234 L 3.112 88.234 Z M 3.112 15.542 L 6.862 15.542 L 6.862 20.384 L 3.112 20.384 Z M 3.112 93.076 L 6.862 93.076 L 6.862 97.918 L 3.112 97.918 Z M 3.112 73.696 L 6.862 73.696 L 6.862 78.537 L 3.112 78.537 Z M 3.112 25.239 L 6.862 25.239 L 6.862 30.081 L 3.112 30.081 Z M 3.112 34.922 L 6.862 34.922 L 6.862 39.764 L 3.112 39.764 Z M 3.112 63.999 L 6.862 63.999 L 6.862 68.841 L 3.112 68.841 Z M 3.112 44.619 L 6.862 44.619 L 6.862 49.461 L 3.112 49.461 Z M 3.112 54.315 L 6.862 54.315 L 6.862 59.157 L 3.112 59.157 Z" fill="rgb(105, 105, 105)"></path></g></svg>